<svg width="1723" height="575" viewBox="0 0 1723 575" fill="none" xmlns="http://www.w3.org/2000/svg">
<path d="M9.28084 565.403C9.28084 557.525 17.5775 550.224 21.9255 544.345C39.5154 520.56 60.7243 499.283 86.0649 484.033C98.6695 476.448 111.816 471.533 124.365 481.539C134.648 489.739 145.654 497.074 155.702 505.553C167.121 515.19 173.994 532.242 184.015 543.606C188.184 548.333 193.085 553.763 195.652 559.585C197.639 564.092 200.19 549.208 200.966 547.393C221.833 498.565 255.796 446.541 300.474 416.517C320.151 403.294 363.635 392.256 382.756 411.53C400.115 429.028 409.514 453.104 415.833 476.46C420.398 493.331 421.613 513.565 428.936 529.383C431.71 535.374 437.235 540.361 441.764 545.084C444.326 547.755 444.746 550.92 446.712 553.396C447.782 554.745 452.054 567.99 452.942 567.99C456.204 567.99 471.627 536.921 473.559 533.908C503.392 487.381 533.098 440.003 566.653 396.105C585.525 371.416 620.001 320.421 657.914 339.026C670.537 345.221 688.482 355.297 695.756 368.305C701.555 378.676 706.545 389.462 711.883 400.077C720.495 417.204 731.62 434.301 735.339 453.462C739.436 474.567 743.132 495.501 748.9 516.267C751.72 526.418 758.063 539.137 758.063 549.702C758.063 552.18 757.984 563.498 760.079 565.034C769.901 572.235 801.783 513.607 803.602 510.171C836.304 448.404 850.379 378.298 885.884 317.968C894.342 303.596 899.797 296.078 916.212 296.078C935.86 296.078 961.153 291.78 979.985 297.925C997.733 303.717 1018.37 315.745 1025.62 334.131C1032.1 350.564 1033.34 368.37 1037.16 385.484C1042.67 410.124 1047.14 435.63 1054.11 459.835C1058.63 475.527 1068.13 494.699 1068.13 511.187C1068.13 521.701 1078.76 532.272 1083.34 541.205C1086.91 548.162 1092.45 555.089 1094.89 562.448C1095.35 563.846 1097.47 571.268 1097.82 568.359C1100.3 547.835 1108.66 526.917 1114.31 507.216C1125.86 466.974 1136.99 426.557 1150.05 386.777C1159.46 358.093 1170.95 330.262 1181.93 302.174C1187.87 286.98 1192.16 268.937 1201.54 255.347C1210.28 242.68 1229.54 231.73 1243.51 226.345C1274.55 214.382 1300.75 235.004 1324.41 253.684C1347.29 271.741 1365.69 293.61 1378.02 320.184C1384.08 333.26 1391.88 347.828 1394.33 362.209C1397.48 380.761 1399.14 399.516 1402.57 417.995C1407.32 443.533 1413.51 469.044 1417.78 494.655C1419.64 505.764 1420.25 513.031 1428.41 521.255C1432.81 525.69 1434.92 527.092 1436.84 532.892C1438.22 537.068 1443.11 541.306 1444.08 544.715C1445.24 548.793 1446.86 553.156 1449.94 556.26C1452.43 558.767 1453.65 562.315 1455.35 565.403C1457.02 568.44 1457.23 564.629 1457.37 562.54C1459.06 537.303 1460.44 512.233 1463.41 487.081C1470.25 429.252 1475.37 367.516 1492.92 311.595C1499.25 291.412 1506.97 271.511 1513.99 251.56C1515.49 247.302 1517.4 238.838 1521.32 235.674C1524.18 233.373 1532.08 244.933 1533.42 246.48C1542.47 256.98 1550.66 268.179 1559.62 278.714C1565.85 286.037 1571.6 293.182 1576.48 301.435C1598.78 339.164 1613.82 381.799 1625.78 423.998C1629.09 435.688 1632.55 447.383 1633.47 459.557C1634.01 466.524 1632.07 476.006 1638.15 480.801C1650.43 490.489 1663.03 499.452 1675.53 508.786C1691.07 520.392 1692.14 540.523 1699.45 557.091C1700.97 560.542 1704.76 574.4 1704.76 572.885C1704.76 529.639 1706.93 486.425 1706.32 443.117C1705.95 417.331 1701.18 392.96 1698.16 367.566C1694.44 336.231 1697.94 304.619 1702.38 273.542C1703.99 262.277 1708.27 279.079 1711.36 282.778C1714.22 286.205 1715.4 291.962 1714.47 282.132C1711.84 254.269 1701.66 226.831 1695.41 199.745C1685.27 155.751 1676.6 112.986 1660.5 70.8091C1657.56 63.104 1652.78 59.4954 1663.99 63.6049C1675.93 67.9822 1696.23 74.7488 1706.04 83.6473C1708.04 85.4596 1711.57 85.3912 1714.29 86.2334C1715.76 86.6878 1717.27 86.2856 1718.69 86.6952C1719.33 86.8793 1720.41 89.4275 1720.89 89.189C1723.57 87.8393 1677.67 41.1943 1673.52 37.0049C1668.02 31.4642 1659.04 27.6442 1652.62 23.3354C1638.15 13.609 1622.67 9.40978 1605.34 8.55765C1597.65 8.17913 1589.1 7.39906 1582.35 11.7903C1573.29 17.6806 1570.13 30.3969 1567.04 40.0528C1560.35 61.0419 1556.77 83.0935 1553.76 104.89C1551.66 120.06 1551.44 135.226 1551.38 150.517C1551.35 157.525 1554.32 173.43 1550.37 180.072C1546.46 186.641 1504.15 147.273 1500.16 143.774C1474.25 121.077 1454.48 90.0296 1426.76 69.7931C1413.55 60.1463 1400.56 61.8597 1385.71 58.7098C1374.87 56.4078 1380.36 73.3415 1381.5 79.7681C1384.75 98.149 1393.42 114.609 1400.01 131.86C1401.44 135.628 1412.47 159.862 1408.44 159.384C1388.67 157.039 1367.89 146.866 1350.16 138.51C1318.95 123.798 1290.01 104.437 1260.18 87.157C1237.6 74.0767 1214.24 59.4841 1189.26 51.5056C1174.32 46.7331 1158.23 45.7808 1142.72 44.3014C1134.7 43.5367 1122.32 41.3548 1115.04 46.1487C1106.86 51.5392 1106.68 66.0859 1106.25 74.5959C1103.72 124.336 1119.5 173.037 1126.22 222.004C1128.14 235.93 1129.79 249.93 1132.36 263.752C1133.08 267.589 1134.57 272.11 1134.1 276.128C1134.08 276.33 1133.92 277.267 1133.37 277.052C1126.64 274.412 1118.3 266.566 1113.12 262.551C1085.71 241.311 1059.7 218.278 1033.31 195.774C1005.98 172.46 977.63 144.292 942.051 134.354C931.861 131.507 903.375 126.427 893.58 133.338C889.102 136.498 890.007 144.197 890.007 148.854C890.007 163.254 891.415 177.216 895.138 191.156C898.753 204.691 902.938 219.952 910.531 231.979C910.968 232.671 894.425 215.885 890.923 212.584C866.499 189.563 836.582 172.095 803.327 165.849C797.073 164.674 789.506 163.263 783.077 163.263C779.37 163.263 780.008 173.856 779.87 175.824C777.48 210.097 777.854 244.376 777.854 278.714C777.854 295.955 777.854 313.196 777.854 330.436C777.854 340.84 777.287 351.098 776.572 361.47C776.325 365.038 777.631 373.072 775.381 376.248C772.287 380.613 772.426 365.926 770.524 360.916C762.466 339.684 750.84 319.462 738.821 300.327C717.289 266.046 694.059 227.881 655.715 210.829C631.565 200.089 605.02 195.228 578.839 193.372C561.812 192.166 554.055 194.565 544.57 208.704C530.347 229.907 512.812 249.375 501.872 272.618C490.501 296.775 485.454 324.354 481.347 350.571C479.031 365.358 477.792 380.211 474.383 394.812C474.282 395.247 472.957 400.077 472.734 400.077C472.289 400.077 472.57 399.183 472.368 398.784C468.766 391.697 463.187 384.878 458.898 378.372C429.992 334.522 408.182 286.887 380.923 242.139C365.519 216.852 350.704 203.844 324.48 225.145C293.227 250.531 267.216 282.161 238.442 310.209C220.409 327.787 198.201 345.419 190.795 370.614C182.284 399.57 173.505 431.429 170.271 461.497C169.411 469.493 167.328 493.406 169.263 485.603C171.632 476.052 172.71 464.871 172.928 455.124C173.92 410.812 156.422 370.957 114.47 354.635C98.9106 348.582 85.1548 346.335 72.8705 359.068C49.9487 382.828 40.0872 416.073 31.4548 447.181C25.2048 469.703 12.3358 489.003 6.07387 511.095C5.24315 514.026 5.98224 504.999 5.98224 501.951C5.98224 487.835 4.39815 474.707 2.77527 460.666C-1.98928 419.443 2.72611 375.579 18.2604 337.271C26.1809 317.739 36.0179 298.143 46.1152 279.638C52.7291 267.516 60.0722 257.185 73.97 253.223C91.113 248.335 111.052 247.805 127.664 254.608C142.299 260.601 150.801 271.193 161.016 282.778C162.099 284.006 174.821 298.591 175.035 298.202C178.503 291.91 175.826 278.431 175.86 271.695C175.951 253.731 176.967 235.867 179.159 218.033C183.574 182.109 205.437 153.871 229.737 128.165C240.989 116.263 254.654 104.995 269.962 98.8869C286.728 92.1971 306.073 93.0751 323.747 93.6223C374.12 95.182 453.829 104.01 468.702 164.556C474.801 189.382 476.033 216.603 476.033 242.139C476.033 261.214 478.912 233.949 480.339 228.747C488.338 199.595 512.424 177.421 533.575 157.536C549.875 142.212 571.249 119.843 595.24 118.283C603.039 117.776 605.284 120.296 611.092 125.21C622.052 134.482 632.827 145.072 645.361 152.179C649.489 154.52 654.435 155.892 658.372 158.46C669.267 165.566 675.225 184.123 687.235 188.57C693.776 190.992 717.745 144.355 721.229 139.249C733.585 121.138 747.688 104.214 761.636 87.3418C772.347 74.3861 787.709 52.974 806.626 50.3973C842.211 45.5499 851.707 88.0539 860.319 114.865C863.478 124.697 871.659 151.732 875.163 142.02C885.327 113.846 890.433 88.7167 914.197 67.8536C932.341 51.9242 957.633 37.3124 982.184 35.25C995.094 34.1656 1002.69 35.3269 1010.77 45.7792C1020.28 58.0752 1027.59 71.8626 1037.34 84.2015C1047.16 96.6163 1052.94 112.274 1063.92 123.917C1069.45 129.791 1075.03 135.173 1079.68 141.835C1085.2 149.754 1082.27 124.245 1082.06 122.07C1080.11 102.137 1077.59 82.1445 1083.16 62.4966C1086.93 49.1848 1092.5 35.8116 1098.64 23.4278C1101.48 17.7049 1104.21 10.1566 1110.92 8.46529C1128.57 4.01739 1148.27 17.2264 1165.81 20.4722C1195.6 25.9888 1225.33 28.2744 1254.5 37.0973C1269.2 41.5414 1283.32 47.9457 1297.75 53.1681C1303.48 55.2412 1305 54.4137 1310.58 51.8751C1325.09 45.2709 1339.69 40.3019 1354.93 35.6195C1383.15 26.943 1410.29 16.1939 1438.77 8.46529C1447.32 6.14429 1456.5 2 1465.52 2C1473.67 2 1480.41 20.8506 1482.66 26.0139C1490.64 44.3631 1494.99 64.5556 1503.55 82.539C1505.1 85.8063 1509.14 96.7721 1513.81 91.2209C1519.06 84.9789 1520.69 75.674 1523.52 68.223C1527.61 57.4312 1532.95 46.1573 1541.11 37.8362C1554.98 23.6895 1578.92 18.1006 1597.83 16.9625C1608.85 16.2991 1621.76 15.0985 1629.72 24.3514C1637.01 32.8324 1633.24 50.4057 1645.02 54.6459C1651.47 56.9679 1656.74 56.8256 1662.7 53.2605C1665.86 51.3729 1678.14 40.2375 1667.19 40.2375C1643.5 40.2375 1628.53 71.6164 1623.4 90.8515C1613.17 129.187 1617.35 171.835 1617.35 211.013C1617.35 232.458 1616.27 251.812 1622.85 272.434C1630.93 297.789 1640.42 322.722 1650.7 347.246C1655.74 359.269 1660.68 370.536 1662.25 383.637C1667.44 427.188 1665.18 471.741 1665.18 515.528C1665.18 523.426 1666.37 532.041 1668.11 539.727C1668.62 541.966 1668.51 541.292 1667.38 539.727C1661.65 531.817 1656.3 523.626 1650.7 515.621C1624.41 478.05 1610.67 434.009 1585.74 395.644C1574.51 378.37 1563.52 359.032 1548.81 344.475C1545.67 341.368 1540.43 336.207 1535.62 338.749C1527.16 343.214 1527.02 362.272 1526.09 370.152C1524.03 387.563 1525.01 405.247 1527.74 422.521C1532.44 452.344 1543.44 480.969 1547.71 510.726C1547.83 511.546 1549.04 517.17 1547.44 515.898C1541.42 511.129 1534.41 507.592 1527.92 503.521C1512.61 493.916 1497.05 485.562 1482.29 474.889C1441.88 445.67 1403.14 414.146 1362.26 385.576C1337.76 368.455 1311.22 354.174 1287.12 336.532C1275.4 327.949 1262.55 308.243 1248 304.575C1235.03 301.308 1229.21 367.547 1228.3 373.292C1222.06 412.722 1223.25 455.615 1212.54 494.193C1210.9 500.069 1210.3 509.495 1209.97 515.528C1209.89 517.03 1210.02 526.616 1207.96 526.427C1203.27 525.998 1194.79 498.478 1194.49 497.703C1183.66 470.277 1174.56 441.926 1161.59 415.409C1152.45 396.711 1138.24 373.2 1120.73 361.193C1099.96 346.957 1082.58 358.688 1065.29 371.814C1038.73 391.98 1007.19 404.495 981.085 424.922C965.677 436.979 950.901 450.893 946.999 470.918C943.768 487.501 942.784 538.339 942.784 521.439C942.784 507.305 927.816 489.978 919.877 479.415C901.548 455.026 880.547 434.78 854.364 419.196C836.348 408.473 822.266 402.478 801.678 402.478C784.077 402.478 785.771 420.861 784.818 435.359C783.574 454.294 783.956 476.649 769.791 491.33C768.294 492.881 751.588 505.672 751.466 501.489C750.264 460.302 695.803 447.411 662.312 451.06C643.566 453.103 635.122 461.257 629.326 478.492C624.53 492.752 619.437 503.976 608.893 514.605C605.321 518.205 602.606 523.332 599.73 527.535C593.661 536.406 596.309 529.305 590.384 520.885C571.829 494.52 544.08 469.731 518.914 449.767C514.846 446.539 481.228 417.352 474.017 423.167C469.39 426.898 467.014 435.17 464.854 440.346C460.551 450.656 455.776 461.271 454.042 472.396C452.024 485.341 454.623 500.532 449.735 512.85C449.668 513.02 449.161 509.719 448.911 509.063C446.396 502.472 441.265 498.116 435.716 494.101C418.332 481.52 390.318 484.687 369.928 479.877C360.519 477.657 337.701 466.37 328.878 475.074C316.442 487.344 305.647 508.651 299.924 525.134C298.199 530.101 298.077 538.591 294.976 542.498C293.661 544.155 295.073 547.558 294.518 549.517C292.828 555.479 248.593 550.585 243.207 549.333C229.574 546.161 213.272 532.107 209.029 518.207C206.967 511.451 205.13 504.97 199.683 499.919C198.578 498.894 187.035 489.783 186.122 493.362C182.676 506.872 185.252 528.088 189.055 541.39C189.767 543.881 189.557 551.49 191.07 553.396C192.576 555.294 194.653 556.739 195.652 558.753" stroke="#817F7F" stroke-opacity="0.48" stroke-width="3" stroke-linecap="round"/>
</svg>
