<svg width="20" height="20" viewBox="0 0 20 20" fill="none" xmlns="http://www.w3.org/2000/svg">
<path d="M8.66926 6.937V8.314H7.66406V9.997H8.66926V15H10.7355V9.997H12.1216C12.1216 9.997 12.2523 9.19 12.3151 8.307H10.7435V7.157C10.7435 6.984 10.9689 6.753 11.1922 6.753H12.3171V5H10.7864C8.6184 5 8.66926 6.685 8.66926 6.937Z" fill="#878180"/>
<path d="M9.96831 18C12.0841 18 14.1133 17.1571 15.6095 15.6569C17.1056 14.1566 17.9461 12.1217 17.9461 10C17.9461 7.87827 17.1056 5.84344 15.6095 4.34315C14.1133 2.84285 12.0841 2 9.96831 2C7.85247 2 5.8233 2.84285 4.32717 4.34315C2.83105 5.84344 1.99054 7.87827 1.99054 10C1.99054 12.1217 2.83105 14.1566 4.32717 15.6569C5.8233 17.1571 7.85247 18 9.96831 18ZM9.96831 20C4.46066 20 -0.00390625 15.523 -0.00390625 10C-0.00390625 4.477 4.46066 0 9.96831 0C15.476 0 19.9405 4.477 19.9405 10C19.9405 15.523 15.476 20 9.96831 20Z" fill="#878180"/>
</svg>
