<svg width="19" height="19" viewBox="0 0 19 19" fill="none" xmlns="http://www.w3.org/2000/svg">
<path d="M14.4578 5.62109C15.0774 5.62109 15.5797 5.11741 15.5797 4.49609C15.5797 3.87477 15.0774 3.37109 14.4578 3.37109C13.8382 3.37109 13.3359 3.87477 13.3359 4.49609C13.3359 5.11741 13.8382 5.62109 14.4578 5.62109Z" fill="#534B49" fill-opacity="0.7"/>
<path d="M9.46475 4.6875C8.51527 4.6875 7.5871 4.96984 6.79763 5.49882C6.00816 6.02779 5.39285 6.77965 5.0295 7.6593C4.66614 8.53895 4.57107 9.5069 4.75631 10.4407C4.94154 11.3746 5.39877 12.2324 6.07015 12.9056C6.74154 13.5789 7.59694 14.0374 8.52818 14.2231C9.45943 14.4089 10.4247 14.3135 11.3019 13.9492C12.1791 13.5848 12.9289 12.9678 13.4564 12.1761C13.9839 11.3844 14.2654 10.4537 14.2654 9.50156C14.2654 8.22479 13.7597 7.00032 12.8594 6.09751C11.959 5.19469 10.738 4.6875 9.46475 4.6875ZM9.46475 12.6266C8.8484 12.6266 8.24589 12.4433 7.73342 12.0999C7.22094 11.7565 6.82152 11.2685 6.58565 10.6974C6.34978 10.1264 6.28807 9.4981 6.40831 8.8919C6.52856 8.28571 6.82536 7.72889 7.26118 7.29185C7.69701 6.85481 8.25228 6.55719 8.85679 6.43661C9.4613 6.31603 10.0879 6.37791 10.6573 6.61444C11.2267 6.85096 11.7134 7.2515 12.0559 7.76541C12.3983 8.27931 12.5811 8.8835 12.5811 9.50156C12.5811 10.3304 12.2527 11.1252 11.6683 11.7113C11.0839 12.2973 10.2913 12.6266 9.46475 12.6266Z" fill="#534B49" fill-opacity="0.7"/>
<path d="M9.46614 1.81406C11.9623 1.81406 12.2584 1.82344 13.2439 1.86875C13.8367 1.87581 14.4238 1.98495 14.9797 2.19141C15.383 2.34742 15.7493 2.58636 16.0549 2.89287C16.3606 3.19939 16.5989 3.56667 16.7544 3.97109C16.9603 4.52854 17.0692 5.11731 17.0762 5.71172C17.1214 6.7 17.1307 6.99687 17.1307 9.50078C17.1307 12.0047 17.1214 12.3 17.0762 13.2883C17.0692 13.8827 16.9603 14.4715 16.7544 15.0289C16.5989 15.4333 16.3606 15.8006 16.0549 16.1071C15.7493 16.4136 15.383 16.6526 14.9797 16.8086C14.4238 17.0151 13.8367 17.1242 13.2439 17.1313C12.2584 17.1766 11.9623 17.1859 9.46614 17.1859C6.96997 17.1859 6.67392 17.1766 5.68839 17.1313C5.09563 17.1242 4.50849 17.0151 3.9526 16.8086C3.5493 16.6526 3.18303 16.4136 2.87737 16.1071C2.57171 15.8006 2.33343 15.4333 2.17785 15.0289C1.97197 14.4715 1.86313 13.8827 1.85609 13.2883C1.81091 12.3 1.80156 12.0031 1.80156 9.5C1.80156 6.99687 1.81091 6.7 1.85609 5.71172C1.86313 5.11731 1.97197 4.52854 2.17785 3.97109C2.33343 3.56667 2.57171 3.19939 2.87737 2.89287C3.18303 2.58636 3.5493 2.34742 3.9526 2.19141C4.50849 1.98495 5.09563 1.87581 5.68839 1.86875C6.67392 1.82344 6.96997 1.81406 9.46614 1.81406ZM9.46614 0.125C6.92712 0.125 6.60848 0.135938 5.61126 0.18125C4.8359 0.19695 4.0688 0.344351 3.34258 0.617188C2.72144 0.858045 2.15733 1.22639 1.68642 1.69861C1.21552 2.17083 0.848196 2.7365 0.608008 3.35938C0.335843 4.08787 0.18885 4.85737 0.173281 5.63516C0.128095 6.63516 0.117188 6.95312 0.117188 9.5C0.117188 12.0469 0.128095 12.3656 0.173281 13.3656C0.188938 14.1431 0.335929 14.9124 0.608008 15.6406C0.848196 16.2635 1.21552 16.8292 1.68642 17.3014C2.15733 17.7736 2.72144 18.142 3.34258 18.3828C4.06905 18.6557 4.83641 18.8031 5.61204 18.8188C6.60926 18.8641 6.92712 18.875 9.46614 18.875C12.0052 18.875 12.3238 18.8641 13.321 18.8188C14.0967 18.8031 14.864 18.6557 15.5905 18.3828C16.2116 18.142 16.7757 17.7736 17.2466 17.3014C17.7176 16.8292 18.0849 16.2635 18.3251 15.6406C18.597 14.9121 18.7437 14.1426 18.759 13.3648C18.8042 12.3648 18.8151 12.0469 18.8151 9.5C18.8151 6.95312 18.8042 6.63438 18.759 5.63438C18.7433 4.85685 18.5964 4.08762 18.3243 3.35938C18.0841 2.7365 17.7168 2.17083 17.2459 1.69861C16.775 1.22639 16.2109 0.858045 15.5897 0.617188C14.8632 0.344531 14.0958 0.197393 13.3203 0.182031C12.323 0.135156 12.0059 0.125 9.46614 0.125Z" fill="#534B49" fill-opacity="0.7"/>
</svg>
