<svg width="34" height="30" viewBox="0 0 34 30" fill="none" xmlns="http://www.w3.org/2000/svg">
<path d="M25.5 10C27.8472 10 29.75 8.32107 29.75 6.25C29.75 4.17893 27.8472 2.5 25.5 2.5C23.1528 2.5 21.25 4.17893 21.25 6.25C21.25 8.32107 23.1528 10 25.5 10Z" stroke="black" stroke-width="2" stroke-linecap="round" stroke-linejoin="round"/>
<path d="M8.5 18.75C10.8472 18.75 12.75 17.0711 12.75 15C12.75 12.9289 10.8472 11.25 8.5 11.25C6.15279 11.25 4.25 12.9289 4.25 15C4.25 17.0711 6.15279 18.75 8.5 18.75Z" stroke="black" stroke-width="2" stroke-linecap="round" stroke-linejoin="round"/>
<path d="M25.5 27.5C27.8472 27.5 29.75 25.8211 29.75 23.75C29.75 21.6789 27.8472 20 25.5 20C23.1528 20 21.25 21.6789 21.25 23.75C21.25 25.8211 23.1528 27.5 25.5 27.5Z" stroke="black" stroke-width="2" stroke-linecap="round" stroke-linejoin="round"/>
<path d="M12.041 16.875L21.9577 21.875M21.9577 8.125L12.041 13.125" stroke="black" stroke-width="2" stroke-linecap="round" stroke-linejoin="round"/>
</svg>
