<svg width="16" height="13" viewBox="0 0 16 13" fill="none" xmlns="http://www.w3.org/2000/svg">
<path fill-rule="evenodd" clip-rule="evenodd" d="M8.00038 11.1236L3.98695 12.9162C3.84508 12.9795 3.68517 13.0079 3.52531 12.9981C3.36544 12.9883 3.21199 12.9407 3.08231 12.8607C2.95264 12.7806 2.8519 12.6714 2.79149 12.5452C2.73108 12.4191 2.71341 12.2811 2.74048 12.1469L3.50674 8.35021L0.259568 5.6607C0.144695 5.56562 0.0634474 5.44511 0.0250213 5.31281C-0.0134049 5.18052 -0.00747442 5.04173 0.0421412 4.91216C0.0917569 4.78258 0.183076 4.66739 0.305762 4.57963C0.428448 4.49187 0.5776 4.43504 0.736336 4.41558L5.22311 3.86162L7.22982 0.407235C7.30072 0.28501 7.41047 0.182087 7.54665 0.110115C7.68283 0.0381445 7.84001 0 8.00038 0C8.16076 0 8.31794 0.0381445 8.45412 0.110115C8.5903 0.182087 8.70005 0.28501 8.77094 0.407235L10.7777 3.86162L15.2644 4.41631C15.423 4.43587 15.5719 4.49272 15.6945 4.58044C15.817 4.66815 15.9082 4.78323 15.9578 4.91267C16.0074 5.04211 16.0134 5.18076 15.9751 5.31295C15.9368 5.44513 15.8558 5.56559 15.7412 5.6607L12.4932 8.35021L13.2594 12.1469C13.2864 12.281 13.2687 12.4189 13.2083 12.5449C13.1479 12.6709 13.0473 12.7801 12.9177 12.8601C12.7882 12.9401 12.6349 12.9877 12.4752 12.9976C12.3155 13.0075 12.1557 12.9793 12.0138 12.9162L8.00038 11.1236Z" fill="#C7920F"/>
</svg>
